<svg xmlns="http://www.w3.org/2000/svg" viewBox="0 0 460 360" role="img" aria-label="Ozone-resistant silicone hose" width="460" height="360">
<title>Ozone-resistant silicone hose</title>
<defs>
  <linearGradient id="bgahose" x1="0" y1="0" x2="0" y2="1"><stop offset="0" stop-color="#FFFFFF"/><stop offset="1" stop-color="#E0F7FB"/></linearGradient>
  <linearGradient id="clearhose" x1="0" y1="0" x2="0" y2="1"><stop offset="0" stop-color="#EAF6FA"/><stop offset="0.5" stop-color="#CDEAF2"/><stop offset="1" stop-color="#AFD9E6"/></linearGradient>
  <linearGradient id="steelahose" x1="0" y1="0" x2="0" y2="1"><stop offset="0" stop-color="#D7DEE4"/><stop offset="1" stop-color="#6B7884"/></linearGradient>
  <filter id="dsahose" x="-30%" y="-30%" width="160%" height="160%"><feDropShadow dx="0" dy="7" stdDeviation="9" flood-color="#0B3A52" flood-opacity="0.18"/></filter>
</defs>
<rect width="460" height="360" fill="url(#bgahose)"/>
<ellipse cx="230" cy="300" rx="150" ry="22" fill="#0B3A52" opacity="0.10"/>
<g filter="url(#dsahose)">
<ellipse cx="230" cy="180" rx="110" ry="46" fill="none" stroke="url(#clearhose)" stroke-width="13" opacity="0.95"/>
<ellipse cx="230" cy="180" rx="110" ry="46" fill="none" stroke="#FFFFFF" stroke-width="3" opacity="0.5"/>
<ellipse cx="230" cy="188" rx="103" ry="43" fill="none" stroke="url(#clearhose)" stroke-width="13" opacity="0.95"/>
<ellipse cx="230" cy="188" rx="103" ry="43" fill="none" stroke="#FFFFFF" stroke-width="3" opacity="0.5"/>
<ellipse cx="230" cy="196" rx="96" ry="40" fill="none" stroke="url(#clearhose)" stroke-width="13" opacity="0.95"/>
<ellipse cx="230" cy="196" rx="96" ry="40" fill="none" stroke="#FFFFFF" stroke-width="3" opacity="0.5"/>
<ellipse cx="230" cy="204" rx="89" ry="37" fill="none" stroke="url(#clearhose)" stroke-width="13" opacity="0.95"/>
<ellipse cx="230" cy="204" rx="89" ry="37" fill="none" stroke="#FFFFFF" stroke-width="3" opacity="0.5"/>
<ellipse cx="230" cy="212" rx="82" ry="34" fill="none" stroke="url(#clearhose)" stroke-width="13" opacity="0.95"/>
<ellipse cx="230" cy="212" rx="82" ry="34" fill="none" stroke="#FFFFFF" stroke-width="3" opacity="0.5"/>
<ellipse cx="230" cy="220" rx="75" ry="32" fill="none" stroke="url(#clearhose)" stroke-width="13" opacity="0.95"/>
<ellipse cx="230" cy="220" rx="75" ry="32" fill="none" stroke="#FFFFFF" stroke-width="3" opacity="0.5"/>
</g>
<text x="230" y="344" text-anchor="middle" font-family="Arial" font-size="18" font-weight="700" fill="#0B3A52">Silicone Hose · 2 m</text>
</svg>
