<svg xmlns="http://www.w3.org/2000/svg" viewBox="0 0 1000 700" role="img" aria-label="Medical Ozone Care touch-screen automated digital ozone generator" width="1000" height="700">
<title>Medical Ozone Care touch-screen automated digital ozone generator</title>
<defs>
  <linearGradient id="bgdg2" x1="0" y1="0" x2="0" y2="1"><stop offset="0" stop-color="#E0F7FB"/><stop offset="1" stop-color="#F4FAFC"/></linearGradient>
  <linearGradient id="frontdg2" x1="0" y1="0" x2="0" y2="1"><stop offset="0" stop-color="#FFFFFF"/><stop offset="1" stop-color="#EDF1F6"/></linearGradient>
  <linearGradient id="topdg2" x1="0" y1="0" x2="0" y2="1"><stop offset="0" stop-color="#FFFFFF"/><stop offset="1" stop-color="#D4DCE6"/></linearGradient>
  <linearGradient id="sidedg2" x1="0" y1="0" x2="1" y2="0"><stop offset="0" stop-color="#D4DCE6"/><stop offset="1" stop-color="#B7C2CF"/></linearGradient>
  <radialGradient id="knobdg2" cx="0.35" cy="0.3" r="0.8"><stop offset="0" stop-color="#5B6B7A"/><stop offset="0.6" stop-color="#2b3742"/><stop offset="1" stop-color="#141c24"/></radialGradient>
  <radialGradient id="leddg2" cx="0.4" cy="0.35" r="0.7"><stop offset="0" stop-color="#cfe8ff"/><stop offset="0.5" stop-color="#4FB7FF"/><stop offset="1" stop-color="#0c49b8"/></radialGradient>
  <radialGradient id="steeldg2" cx="0.4" cy="0.3" r="0.8"><stop offset="0" stop-color="#eef2f5"/><stop offset="0.6" stop-color="#aeb9c4"/><stop offset="1" stop-color="#7c8893"/></radialGradient>
  <linearGradient id="scrAccdg2" x1="0" y1="0" x2="1" y2="0"><stop offset="0" stop-color="#4FB7FF"/><stop offset="1" stop-color="#1F6FEB"/></linearGradient>
  <linearGradient id="scrBgdg2" x1="0" y1="0" x2="0" y2="1"><stop offset="0" stop-color="#0e1b30"/><stop offset="1" stop-color="#0a1220"/></linearGradient>
  <filter id="softdg2" x="-20%" y="-20%" width="140%" height="140%"><feDropShadow dx="0" dy="12" stdDeviation="16" flood-color="#0B3A52" flood-opacity="0.18"/></filter>
</defs>
<rect width="1000" height="700" fill="url(#bgdg2)"/>
<g filter="url(#softdg2)">
<ellipse cx="500" cy="616" rx="330" ry="34" fill="#0B3A52" opacity="0.12"/>
<path d="M740,600 L740,232 L890,137 L890,505 Z" fill="url(#sidedg2)" stroke="#B7C2CF" stroke-width="1.5"/>
<path d="M180,232 L740,232 L890,137 L330,137 Z" fill="url(#topdg2)" stroke="#B7C2CF" stroke-width="1.5"/>
<g transform="matrix(1,0,1,-0.6333,180,232)">
<rect x="24" y="14" width="420" height="118" rx="6" fill="#FFFFFF" stroke="#D4DCE6"/>
<rect x="34" y="22" width="150" height="9" rx="4" fill="#1F6FEB"/>
<rect x="34" y="42" width="58" height="20" rx="3" fill="#EDF1F6"/>
<rect x="98" y="42" width="44" height="20" rx="2" fill="#E8A23A" opacity="0.85"/>
<rect x="144" y="42" width="44" height="20" rx="2" fill="#3FA9C9" opacity="0.85"/>
<rect x="190" y="42" width="44" height="20" rx="2" fill="#EBD9C2" opacity="0.85"/>
<rect x="236" y="42" width="44" height="20" rx="2" fill="#C9536A" opacity="0.85"/>
<rect x="282" y="42" width="44" height="20" rx="2" fill="#EBD9C2" opacity="0.85"/>
<rect x="328" y="42" width="44" height="20" rx="2" fill="#9B6FB0" opacity="0.85"/>
<rect x="374" y="42" width="44" height="20" rx="2" fill="#6FB07A" opacity="0.85"/>
<rect x="34" y="70" width="58" height="20" rx="3" fill="#EDF1F6"/>
<rect x="98" y="70" width="44" height="20" rx="2" fill="#E8A23A" opacity="0.85"/>
<rect x="144" y="70" width="44" height="20" rx="2" fill="#3FA9C9" opacity="0.85"/>
<rect x="190" y="70" width="44" height="20" rx="2" fill="#EBD9C2" opacity="0.85"/>
<rect x="236" y="70" width="44" height="20" rx="2" fill="#C9536A" opacity="0.85"/>
<rect x="282" y="70" width="44" height="20" rx="2" fill="#EBD9C2" opacity="0.85"/>
<rect x="328" y="70" width="44" height="20" rx="2" fill="#9B6FB0" opacity="0.85"/>
<rect x="374" y="70" width="44" height="20" rx="2" fill="#6FB07A" opacity="0.85"/>
<rect x="34" y="98" width="58" height="20" rx="3" fill="#EDF1F6"/>
<rect x="98" y="98" width="44" height="20" rx="2" fill="#E8A23A" opacity="0.85"/>
<rect x="144" y="98" width="44" height="20" rx="2" fill="#3FA9C9" opacity="0.85"/>
<rect x="190" y="98" width="44" height="20" rx="2" fill="#EBD9C2" opacity="0.85"/>
<rect x="236" y="98" width="44" height="20" rx="2" fill="#C9536A" opacity="0.85"/>
<rect x="282" y="98" width="44" height="20" rx="2" fill="#EBD9C2" opacity="0.85"/>
<rect x="328" y="98" width="44" height="20" rx="2" fill="#9B6FB0" opacity="0.85"/>
<rect x="374" y="98" width="44" height="20" rx="2" fill="#6FB07A" opacity="0.85"/>
</g>
<rect x="600" y="146" width="20" height="46" rx="5" fill="url(#steeldg2)" stroke="#6B7884" stroke-width="1"/>
<rect x="597" y="132" width="26" height="16" rx="7" fill="#bcd8ec" stroke="#8fb4cf" stroke-width="1"/>
<rect x="710" y="124" width="20" height="46" rx="5" fill="url(#steeldg2)" stroke="#6B7884" stroke-width="1"/>
<rect x="707" y="110" width="26" height="16" rx="7" fill="#bcd8ec" stroke="#8fb4cf" stroke-width="1"/>
<path d="M180,600 L740,600 L740,232 L180,232 Z" fill="url(#frontdg2)" stroke="#B7C2CF" stroke-width="1.5"/>
</g>
<text x="610" y="214" text-anchor="middle" font-family="Arial" font-size="13" fill="#0B3A52">O₃ Port</text>
<text x="720" y="196" text-anchor="middle" font-family="Arial" font-size="13" fill="#0B3A52">Vacuum</text>
<path d="M180,232 L246,232 L180,290 Z" fill="#E5343B"/>
<text x="214" y="270" font-family="Arial" font-weight="800" font-size="21" letter-spacing="0.5" fill="#1F6FEB">MEDICAL <tspan fill="#077E92">OZONE</tspan> CARE</text>
<text x="214" y="289" font-family="Arial" font-size="10.5" fill="#5C6F7A">B-87, Madhu Vihar, Uttam Nagar, New Delhi-110059</text>
<text x="214" y="305" font-family="Arial" font-size="10.5" fill="#5C6F7A">medicalozonecare@gmail.com · www.medicalozonecare.co.in</text>
<text x="648" y="292" font-family="Arial" font-weight="700" font-size="30" fill="#6B7884">CE</text>
<!-- Touch-screen automated control panel (replaces the old V/C meter + current knob + switches) -->
<rect x="246" y="342" width="448" height="236" rx="18" fill="#05070c" stroke="#263042" stroke-width="2"/>
<rect x="260" y="356" width="420" height="208" rx="10" fill="url(#scrBgdg2)"/>
<path d="M260,356 L460,356 L340,430 L260,430 Z" fill="#4FB7FF" opacity="0.05"/>
<!-- header -->
<text x="280" y="388" font-family="Arial" font-weight="700" font-size="13" fill="#7f9cbe" letter-spacing="1">MEDICAL OZONE CARE</text>
<rect x="566" y="372" width="92" height="26" rx="13" fill="#0f3320" stroke="#2f9c5a" stroke-width="1"/>
<circle cx="584" cy="385" r="4.5" fill="#34d058"/>
<text x="598" y="390" font-family="Arial" font-weight="700" font-size="12" fill="#5fe089">AUTO</text>
<line x1="280" y1="406" x2="660" y2="406" stroke="#1b2c48" stroke-width="1.5"/>
<!-- live reading -->
<text x="470" y="440" text-anchor="middle" font-family="Arial" font-weight="600" font-size="13" fill="#6f8aa8" letter-spacing="2">O₃ CONCENTRATION</text>
<text x="470" y="490" text-anchor="middle" font-family="Consolas,monospace" font-weight="800" font-size="52" fill="#eaf6ff">48.0 <tspan font-family="Arial" font-weight="700" font-size="18" fill="#4FB7FF">µg/mL</tspan></text>
<!-- touch buttons -->
<rect x="278" y="508" width="118" height="46" rx="10" fill="url(#scrAccdg2)"/>
<text x="337" y="537" text-anchor="middle" font-family="Arial" font-weight="700" font-size="16" fill="#062038">AUTO</text>
<rect x="411" y="508" width="118" height="46" rx="10" fill="#122135" stroke="#2a4166" stroke-width="1.5"/>
<text x="470" y="537" text-anchor="middle" font-family="Arial" font-weight="700" font-size="16" fill="#cfe3ff">START</text>
<rect x="544" y="508" width="118" height="46" rx="10" fill="#122135" stroke="#2a4166" stroke-width="1.5"/>
<text x="603" y="537" text-anchor="middle" font-family="Arial" font-weight="700" font-size="16" fill="#cfe3ff">TIMER</text>
<text x="470" y="596" text-anchor="middle" font-family="Arial" font-size="12" fill="#0B3A52">Touch-Screen Automated Control</text>
</svg>
