<svg xmlns="http://www.w3.org/2000/svg" viewBox="0 0 460 360" role="img" aria-label="Power adaptor" width="460" height="360">
<title>Power adaptor</title>
<defs>
  <linearGradient id="bgaadp" x1="0" y1="0" x2="0" y2="1"><stop offset="0" stop-color="#FFFFFF"/><stop offset="1" stop-color="#E0F7FB"/></linearGradient>
  <linearGradient id="clearadp" x1="0" y1="0" x2="0" y2="1"><stop offset="0" stop-color="#EAF6FA"/><stop offset="0.5" stop-color="#CDEAF2"/><stop offset="1" stop-color="#AFD9E6"/></linearGradient>
  <linearGradient id="steelaadp" x1="0" y1="0" x2="0" y2="1"><stop offset="0" stop-color="#D7DEE4"/><stop offset="1" stop-color="#6B7884"/></linearGradient>
  <filter id="dsaadp" x="-30%" y="-30%" width="160%" height="160%"><feDropShadow dx="0" dy="7" stdDeviation="9" flood-color="#0B3A52" flood-opacity="0.18"/></filter>
</defs>
<rect width="460" height="360" fill="url(#bgaadp)"/>
<ellipse cx="230" cy="305" rx="130" ry="20" fill="#0B3A52" opacity="0.10"/>
<g filter="url(#dsaadp)">
<rect x="160" y="150" width="140" height="110" rx="16" fill="#2B333B"/>
<rect x="160" y="150" width="140" height="40" rx="16" fill="#3a444d"/>
<rect x="290" y="176" width="40" height="20" rx="4" fill="#3a444d"/><rect x="326" y="180" width="8" height="5" fill="#9aa7b4"/><rect x="326" y="187" width="8" height="5" fill="#9aa7b4"/>
<text x="230" y="212" text-anchor="middle" font-family="Arial" font-size="11" fill="#9aa7b4">100–240V</text>
<path d="M180,260 q-60,40 -90,10 t-40,-30" fill="none" stroke="#2B333B" stroke-width="10" stroke-linecap="round"/>
<rect x="40" y="206" width="22" height="34" rx="5" fill="#2B333B"/>
</g>
<text x="230" y="344" text-anchor="middle" font-family="Arial" font-size="18" font-weight="700" fill="#0B3A52">Power Adaptor 100–240V</text>
</svg>
