<svg xmlns="http://www.w3.org/2000/svg" viewBox="0 0 1000 640" role="img" aria-label="Accessory kit" width="1000" height="640">
<title>Accessory kit</title>
<defs>
  <linearGradient id="bgk" x1="0" y1="0" x2="1" y2="1"><stop offset="0" stop-color="#FFFFFF"/><stop offset="1" stop-color="#E0F7FB"/></linearGradient>
  <linearGradient id="cleark" x1="0" y1="0" x2="0" y2="1"><stop offset="0" stop-color="#EAF6FA"/><stop offset="1" stop-color="#AFD9E6"/></linearGradient>
  <linearGradient id="steelk" x1="0" y1="0" x2="0" y2="1"><stop offset="0" stop-color="#D7DEE4"/><stop offset="1" stop-color="#6B7884"/></linearGradient>
  <filter id="dsk" x="-30%" y="-30%" width="160%" height="160%"><feDropShadow dx="0" dy="8" stdDeviation="12" flood-color="#0B3A52" flood-opacity="0.16"/></filter>
</defs>
<rect width="1000" height="640" fill="url(#bgk)"/>
<circle cx="850" cy="120" r="160" fill="#0AA2B8" opacity="0.06"/>
<g filter="url(#dsk)"><rect x="60" y="60" width="270" height="220" rx="18" fill="#FFFFFF" stroke="#D4DCE6" stroke-width="1.5"/></g><ellipse cx="195" cy="120" rx="74" ry="26" fill="none" stroke="url(#cleark)" stroke-width="11"/><ellipse cx="195" cy="129" rx="74" ry="26" fill="none" stroke="url(#cleark)" stroke-width="11"/><ellipse cx="195" cy="138" rx="74" ry="26" fill="none" stroke="url(#cleark)" stroke-width="11"/><ellipse cx="195" cy="147" rx="74" ry="26" fill="none" stroke="url(#cleark)" stroke-width="11"/><text x="195" y="260" text-anchor="middle" font-family="Arial" font-size="15" font-weight="700" fill="#0B3A52">Silicone Hose 2m</text>
<g filter="url(#dsk)"><rect x="365" y="60" width="270" height="220" rx="18" fill="#FFFFFF" stroke="#D4DCE6" stroke-width="1.5"/></g><rect x="465" y="108" width="34" height="84" rx="11" fill="#8A8F94"/><rect x="465" y="108" width="34" height="84" rx="11" fill="url(#cleark)" opacity="0.10"/><rect x="478" y="92" width="8" height="20" rx="3" fill="url(#steelk)"/><circle cx="473" cy="130" r="2.4" fill="#6f757a" opacity="0.7"/><circle cx="488" cy="150" r="2.4" fill="#6f757a" opacity="0.7"/><circle cx="479" cy="172" r="2.4" fill="#6f757a" opacity="0.7"/><circle cx="491" cy="182" r="2.4" fill="#6f757a" opacity="0.7"/><rect x="501" y="108" width="34" height="84" rx="11" fill="#8A8F94"/><rect x="501" y="108" width="34" height="84" rx="11" fill="url(#cleark)" opacity="0.10"/><rect x="514" y="92" width="8" height="20" rx="3" fill="url(#steelk)"/><circle cx="509" cy="130" r="2.4" fill="#6f757a" opacity="0.7"/><circle cx="524" cy="150" r="2.4" fill="#6f757a" opacity="0.7"/><circle cx="515" cy="172" r="2.4" fill="#6f757a" opacity="0.7"/><circle cx="527" cy="182" r="2.4" fill="#6f757a" opacity="0.7"/><text x="500" y="260" text-anchor="middle" font-family="Arial" font-size="15" font-weight="700" fill="#0B3A52">Stone Diffuser ×2</text>
<g filter="url(#dsk)"><rect x="670" y="60" width="270" height="220" rx="18" fill="#FFFFFF" stroke="#D4DCE6" stroke-width="1.5"/></g><path d="M735,120 h90 l30,20 v30 l-30,20 h-90 Z" fill="url(#cleark)" stroke="#9FC8D6" stroke-width="2"/><rect x="700" y="135" width="34" height="30" rx="6" fill="url(#cleark)" stroke="#9FC8D6" stroke-width="2"/><text x="805" y="260" text-anchor="middle" font-family="Arial" font-size="15" font-weight="700" fill="#0B3A52">Male Luer Lock</text>
<g filter="url(#dsk)"><rect x="212" y="330" width="270" height="220" rx="18" fill="#FFFFFF" stroke="#D4DCE6" stroke-width="1.5"/></g><rect x="262" y="410" width="170" height="28" rx="14" fill="url(#cleark)" stroke="#9FC8D6" stroke-width="2"/><rect x="333" y="438" width="28" height="44" rx="10" fill="url(#cleark)" stroke="#9FC8D6" stroke-width="2"/><circle cx="347" cy="404" r="20" fill="#2E73C8"/><rect x="339" y="372" width="16" height="40" rx="6" fill="#2E73C8"/><text x="347" y="530" text-anchor="middle" font-family="Arial" font-size="15" font-weight="700" fill="#0B3A52">3-Valve Lock</text>
<g filter="url(#dsk)"><rect x="517" y="330" width="270" height="220" rx="18" fill="#FFFFFF" stroke="#D4DCE6" stroke-width="1.5"/></g><rect x="600" y="396" width="104" height="80" rx="12" fill="#2B333B"/><text x="652" y="442" text-anchor="middle" font-family="Arial" font-size="10" fill="#9aa7b4">100–240V</text><path d="M600,470 q-40,30 -70,6" fill="none" stroke="#2B333B" stroke-width="8" stroke-linecap="round"/><text x="652" y="530" text-anchor="middle" font-family="Arial" font-size="15" font-weight="700" fill="#0B3A52">Power Adaptor</text>
<text x="500" y="40" text-anchor="middle" font-family="Arial" font-size="22" font-weight="800" fill="#0B3A52">Ozone Therapy Accessory Kit</text>
</svg>
