<svg xmlns="http://www.w3.org/2000/svg" viewBox="0 0 1100 420" role="img" aria-label="Medical ozone applications" width="1100" height="420">
<title>Medical ozone applications</title>
<defs>
  <radialGradient id="c0app" cx="0.4" cy="0.3" r="0.8"><stop offset="0" stop-color="#7FE8F5"/><stop offset="1" stop-color="#077E92"/></radialGradient>
  <radialGradient id="c1app" cx="0.4" cy="0.3" r="0.8"><stop offset="0" stop-color="#4FB7FF"/><stop offset="1" stop-color="#1F6FEB"/></radialGradient>

  <radialGradient id="sph0" cx="0.35" cy="0.3" r="0.8"><stop offset="0" stop-color="#7FE8F5"/><stop offset="0.6" stop-color="#0AA2B8"/><stop offset="1" stop-color="#055468"/></radialGradient>
  <radialGradient id="sph1" cx="0.35" cy="0.3" r="0.8"><stop offset="0" stop-color="#5FD0E0"/><stop offset="0.6" stop-color="#077E92"/><stop offset="1" stop-color="#055468"/></radialGradient>
  <radialGradient id="sph2" cx="0.35" cy="0.3" r="0.8"><stop offset="0" stop-color="#AEF6FF"/><stop offset="0.6" stop-color="#22D3EE"/><stop offset="1" stop-color="#077E92"/></radialGradient></defs>
<rect width="1100" height="420" fill="none"/>
<line x1="470" y1="60.0" x2="450.2" y2="72.1" stroke="#0AA2B8" stroke-width="3.52" opacity="0.6"/>
<line x1="470" y1="60.0" x2="489.8" y2="72.1" stroke="#0AA2B8" stroke-width="3.52" opacity="0.6"/>
<circle cx="470" cy="60.0" r="11.0" fill="url(#sph0)"/>
<circle cx="450.2" cy="72.1" r="11.0" fill="url(#sph1)"/>
<circle cx="489.8" cy="72.1" r="11.0" fill="url(#sph2)"/>
<text x="510" y="68" font-family="Inter,Arial" font-weight="800" font-size="24" fill="#0B3A52">Medical Ozone — Applications</text>
<polyline points="150,250 350,232 550,224 750,232 950,250" fill="none" stroke="#0AA2B8" stroke-width="2" stroke-dasharray="3 7" opacity="0.55"/>
<circle cx="150" cy="250" r="58" fill="url(#c0app)" opacity="0.15"/>
<circle cx="150" cy="250" r="46" fill="url(#c0app)"/>
<path d="M150.0,234.0 q15,17 0,29 q-15,-12 0,-29 Z" fill="#fff"/>
<text x="150" y="330" text-anchor="middle" font-family="Inter,Arial" font-weight="700" font-size="15" fill="#0B3A52">Blood Therapy</text>
<circle cx="350" cy="232" r="58" fill="url(#c1app)" opacity="0.15"/>
<circle cx="350" cy="232" r="46" fill="url(#c1app)"/>
<circle cx="342.0" cy="224.61522368914976" r="8" fill="#fff"/><circle cx="358.0" cy="239.61522368914976" r="9" fill="#fff"/><rect x="346.0" y="226.61522368914976" width="8" height="14" rx="4" fill="#fff" transform="rotate(42 350.0 231.61522368914976)"/>
<text x="350" y="312" text-anchor="middle" font-family="Inter,Arial" font-weight="700" font-size="15" fill="#0B3A52">Joint O₃</text>
<circle cx="550" cy="224" r="58" fill="url(#c0app)" opacity="0.15"/>
<circle cx="550" cy="224" r="46" fill="url(#c0app)"/>
<path d="M536.0,212.0 q14,-11 28,0 q5,23 -6,31 q-4,-11 -8,-11 q-4,0 -8,11 q-11,-8 -6,-31 Z" fill="#fff"/>
<text x="550" y="304" text-anchor="middle" font-family="Inter,Arial" font-weight="700" font-size="15" fill="#0B3A52">Dental</text>
<circle cx="750" cy="232" r="58" fill="url(#c1app)" opacity="0.15"/>
<circle cx="750" cy="232" r="46" fill="url(#c1app)"/>
<path d="M738.0,246.61522368914976 q-7,-28 8,-28 q15,0 8,19 q15,-2 10,13" fill="none" stroke="#fff" stroke-width="5" stroke-linecap="round"/>
<text x="750" y="312" text-anchor="middle" font-family="Inter,Arial" font-weight="700" font-size="15" fill="#0B3A52">Rectal Insufflation</text>
<circle cx="950" cy="250" r="58" fill="url(#c0app)" opacity="0.15"/>
<circle cx="950" cy="250" r="46" fill="url(#c0app)"/>
<path d="M943.0,234.0 h14 M945.0,234.0 v9 l-8,19 q-2,9 7,9 h12 q9,0 7,-9 l-8,-19 v-9" fill="none" stroke="#fff" stroke-width="4" stroke-linejoin="round"/>
<text x="950" y="330" text-anchor="middle" font-family="Inter,Arial" font-weight="700" font-size="15" fill="#0B3A52">Gynaecological</text>
</svg>
