<svg xmlns="http://www.w3.org/2000/svg" viewBox="0 0 1000 640" role="img" aria-label="AOT-MD-520 ozone generator" width="1000" height="640">
<title>AOT-MD-520 ozone generator</title>
<defs>
  <linearGradient id="bgc" x1="0" y1="0" x2="0" y2="1">
    <stop offset="0" stop-color="#E0F7FB"/><stop offset="1" stop-color="#F4FAFC"/>
  </linearGradient>
  <linearGradient id="topc" x1="0" y1="0" x2="0.6" y2="1">
    <stop offset="0" stop-color="#FFFFFF"/><stop offset="1" stop-color="#EDF1F6"/>
  </linearGradient>
  <linearGradient id="frontc" x1="0" y1="0" x2="0" y2="1">
    <stop offset="0" stop-color="#EDF1F6"/><stop offset="1" stop-color="#D4DCE6"/>
  </linearGradient>
  <linearGradient id="sidec" x1="0" y1="0" x2="1" y2="0">
    <stop offset="0" stop-color="#D4DCE6"/><stop offset="1" stop-color="#B7C2CF"/>
  </linearGradient>
  <radialGradient id="knobc" cx="0.35" cy="0.3" r="0.8">
    <stop offset="0" stop-color="#5B6B7A"/><stop offset="0.6" stop-color="#33414E"/><stop offset="1" stop-color="#1B252E"/>
  </radialGradient>
  <radialGradient id="bluec" cx="0.35" cy="0.3" r="0.8">
    <stop offset="0" stop-color="#6FB7FF"/><stop offset="0.6" stop-color="#2E73C8"/><stop offset="1" stop-color="#173E78"/>
  </radialGradient>
  <radialGradient id="ledc" cx="0.4" cy="0.35" r="0.7">
    <stop offset="0" stop-color="#BFFFD0"/><stop offset="0.5" stop-color="#34D058"/><stop offset="1" stop-color="#137a2d"/>
  </radialGradient>
  <filter id="softc" x="-20%" y="-20%" width="140%" height="140%">
    <feDropShadow dx="0" dy="10" stdDeviation="14" flood-color="#0B3A52" flood-opacity="0.18"/>
  </filter>

  <linearGradient id="cardc" x1="0" y1="0" x2="1" y2="1">
    <stop offset="0" stop-color="#FFFFFF"/><stop offset="1" stop-color="#E0F7FB"/>
  </linearGradient></defs>
<rect x="0" y="0" width="1000" height="640" rx="0" fill="url(#cardc)"/>
<circle cx="820" cy="150" r="180" fill="#0AA2B8" opacity="0.06"/>
<circle cx="150" cy="560" r="140" fill="#0AA2B8" opacity="0.05"/>
<g filter="url(#softc)">
<ellipse cx="500" cy="520" rx="330" ry="34" fill="#0B3A52" opacity="0.12"/>
<path d="M690,500 L690,372 L840,272 L840,400 Z" fill="url(#sidec)" stroke="#B7C2CF" stroke-width="1.5"/>
<path d="M708,478 l120,-80 l14,0 l-120,80 Z" fill="#0B3A52" opacity="0.08"/>
<path d="M708,462 l120,-80 l14,0 l-120,80 Z" fill="#0B3A52" opacity="0.08"/>
<path d="M708,446 l120,-80 l14,0 l-120,80 Z" fill="#0B3A52" opacity="0.08"/>
<path d="M708,430 l120,-80 l14,0 l-120,80 Z" fill="#0B3A52" opacity="0.08"/>
<path d="M708,414 l120,-80 l14,0 l-120,80 Z" fill="#0B3A52" opacity="0.08"/>
<path d="M170,500 L690,500 L690,372 L170,372 Z" fill="url(#frontc)" stroke="#B7C2CF" stroke-width="1.5"/>
<rect x="210" y="392" width="86" height="6" rx="3" fill="#0B3A52" opacity="0.06"/>
<rect x="210" y="408" width="86" height="6" rx="3" fill="#0B3A52" opacity="0.06"/>
<rect x="210" y="424" width="86" height="6" rx="3" fill="#0B3A52" opacity="0.06"/>
<rect x="210" y="440" width="86" height="6" rx="3" fill="#0B3A52" opacity="0.06"/>
<rect x="210" y="456" width="86" height="6" rx="3" fill="#0B3A52" opacity="0.06"/>
<rect x="210" y="472" width="86" height="6" rx="3" fill="#0B3A52" opacity="0.06"/>
<rect x="560" y="392" width="86" height="6" rx="3" fill="#0B3A52" opacity="0.06"/>
<rect x="560" y="408" width="86" height="6" rx="3" fill="#0B3A52" opacity="0.06"/>
<rect x="560" y="424" width="86" height="6" rx="3" fill="#0B3A52" opacity="0.06"/>
<rect x="560" y="440" width="86" height="6" rx="3" fill="#0B3A52" opacity="0.06"/>
<rect x="560" y="456" width="86" height="6" rx="3" fill="#0B3A52" opacity="0.06"/>
<rect x="560" y="472" width="86" height="6" rx="3" fill="#0B3A52" opacity="0.06"/>
<rect x="372" y="398" width="180" height="74" rx="9" fill="#0B3A52"/>
<rect x="372" y="398" width="180" height="74" rx="9" fill="url(#topc)" opacity="0.08"/>
<text x="462" y="424" text-anchor="middle" font-family="Arial,Segoe UI,sans-serif" font-size="13" letter-spacing="2" fill="#7DD3FC">MEDICAL OZONE CARE</text>
<text x="462" y="452" text-anchor="middle" font-family="Arial,Segoe UI,sans-serif" font-weight="700" font-size="22" letter-spacing="1" fill="#FFFFFF">AOT-MD-520</text>
<circle cx="252" cy="486" r="6" fill="url(#ledc)"/>
<text x="572" y="448" font-family="Arial,Segoe UI,sans-serif" font-weight="700" font-size="22" fill="#6B7884">CE</text>
<g transform="matrix(1,0,1,-0.6667,170,372)">
<rect x="0" y="0" width="520" height="150" fill="url(#topc)" stroke="#B7C2CF" stroke-width="1.5"/>
<rect x="14" y="10" width="288" height="92" rx="5" fill="#FFFFFF" stroke="#D4DCE6" stroke-width="1"/>
<rect x="22" y="16" width="118" height="7" rx="3.5" fill="#0AA2B8"/>
<rect x="150" y="17" width="40" height="6" rx="3" fill="#D4DCE6"/>
<rect x="52" y="27" width="160" height="6" rx="2" fill="#0AA2B8" opacity="0.9"/>
<rect x="212" y="27" width="80" height="6" rx="2" fill="#CBA13A"/>
<rect x="26" y="39" width="20" height="7" rx="1.5" fill="#EDF1F6"/>
<rect x="52" y="38" width="38" height="8.5" rx="1.5" fill="#A8C2E3"/>
<rect x="92" y="38" width="38" height="8.5" rx="1.5" fill="#A1D5DF"/>
<rect x="132" y="38" width="38" height="8.5" rx="1.5" fill="#ABE0C0"/>
<rect x="172" y="38" width="38" height="8.5" rx="1.5" fill="#D5E0A6"/>
<rect x="212" y="38" width="38" height="8.5" rx="1.5" fill="#E9CEA6"/>
<rect x="252" y="38" width="38" height="8.5" rx="1.5" fill="#E9B5AE"/>
<rect x="26" y="49" width="20" height="7" rx="1.5" fill="#EDF1F6"/>
<rect x="52" y="48" width="38" height="8.5" rx="1.5" fill="#95B5DC"/>
<rect x="92" y="48" width="38" height="8.5" rx="1.5" fill="#8CCBD8"/>
<rect x="132" y="48" width="38" height="8.5" rx="1.5" fill="#99D8B3"/>
<rect x="172" y="48" width="38" height="8.5" rx="1.5" fill="#CCD893"/>
<rect x="212" y="48" width="38" height="8.5" rx="1.5" fill="#E5C493"/>
<rect x="252" y="48" width="38" height="8.5" rx="1.5" fill="#E5A49B"/>
<rect x="26" y="59" width="20" height="7" rx="1.5" fill="#EDF1F6"/>
<rect x="52" y="58" width="38" height="8.5" rx="1.5" fill="#82A7D6"/>
<rect x="92" y="58" width="38" height="8.5" rx="1.5" fill="#77C2D1"/>
<rect x="132" y="58" width="38" height="8.5" rx="1.5" fill="#86D2A5"/>
<rect x="172" y="58" width="38" height="8.5" rx="1.5" fill="#C3D27F"/>
<rect x="212" y="58" width="38" height="8.5" rx="1.5" fill="#E0B97F"/>
<rect x="252" y="58" width="38" height="8.5" rx="1.5" fill="#E09489"/>
<rect x="26" y="69" width="20" height="7" rx="1.5" fill="#EDF1F6"/>
<rect x="52" y="68" width="38" height="8.5" rx="1.5" fill="#6E9AD0"/>
<rect x="92" y="68" width="38" height="8.5" rx="1.5" fill="#62B8CA"/>
<rect x="132" y="68" width="38" height="8.5" rx="1.5" fill="#74CA97"/>
<rect x="172" y="68" width="38" height="8.5" rx="1.5" fill="#B9CA6B"/>
<rect x="212" y="68" width="38" height="8.5" rx="1.5" fill="#DBAE6B"/>
<rect x="252" y="68" width="38" height="8.5" rx="1.5" fill="#DB8377"/>
<rect x="26" y="79" width="20" height="7" rx="1.5" fill="#EDF1F6"/>
<rect x="52" y="78" width="38" height="8.5" rx="1.5" fill="#5B8CC9"/>
<rect x="92" y="78" width="38" height="8.5" rx="1.5" fill="#4DAFC3"/>
<rect x="132" y="78" width="38" height="8.5" rx="1.5" fill="#61C489"/>
<rect x="172" y="78" width="38" height="8.5" rx="1.5" fill="#B0C458"/>
<rect x="212" y="78" width="38" height="8.5" rx="1.5" fill="#D6A358"/>
<rect x="252" y="78" width="38" height="8.5" rx="1.5" fill="#D67365"/>
<rect x="26" y="89" width="20" height="7" rx="1.5" fill="#EDF1F6"/>
<rect x="52" y="88" width="38" height="8.5" rx="1.5" fill="#487FC3"/>
<rect x="92" y="88" width="38" height="8.5" rx="1.5" fill="#38A6BC"/>
<rect x="132" y="88" width="38" height="8.5" rx="1.5" fill="#4EBC7B"/>
<rect x="172" y="88" width="38" height="8.5" rx="1.5" fill="#A7BC44"/>
<rect x="212" y="88" width="38" height="8.5" rx="1.5" fill="#D19844"/>
<rect x="252" y="88" width="38" height="8.5" rx="1.5" fill="#D16253"/>
<rect x="314" y="10" width="190" height="92" rx="5" fill="#FFFFFF" stroke="#D4DCE6" stroke-width="1"/>
<rect x="322" y="18" width="72" height="7" rx="3.5" fill="#0AA2B8"/>
<rect x="322" y="36" width="156" height="5" rx="2.5" fill="#D4DCE6"/>
<rect x="322" y="48" width="142" height="5" rx="2.5" fill="#D4DCE6"/>
<rect x="322" y="60" width="160" height="5" rx="2.5" fill="#D4DCE6"/>
<rect x="322" y="72" width="120" height="5" rx="2.5" fill="#D4DCE6"/>
<rect x="322" y="84" width="148" height="5" rx="2.5" fill="#D4DCE6"/>
<rect x="20" y="112" width="30" height="26" rx="4" fill="#222C34"/>
<rect x="24" y="116" width="22" height="9" rx="2" fill="#3a4751"/>
<circle cx="78" cy="124" r="9" fill="#EFF3F7" stroke="#9AA7B4" stroke-width="1.4"/>
<circle cx="78" cy="124" r="4.5" fill="#D7DFE7"/>
<circle cx="106" cy="124" r="9" fill="#EFF3F7" stroke="#9AA7B4" stroke-width="1.4"/>
<circle cx="106" cy="124" r="4.5" fill="#D7DFE7"/>
<circle cx="134" cy="124" r="9" fill="#EFF3F7" stroke="#9AA7B4" stroke-width="1.4"/>
<circle cx="134" cy="124" r="4.5" fill="#D7DFE7"/>
<circle cx="162" cy="124" r="9" fill="#EFF3F7" stroke="#9AA7B4" stroke-width="1.4"/>
<circle cx="162" cy="124" r="4.5" fill="#D7DFE7"/>
<circle cx="232" cy="124" r="24" fill="url(#knobc)"/>
<rect x="230" y="104" width="4" height="16" rx="2" fill="#cfd8df"/>
<circle cx="296" cy="120" r="12" fill="url(#bluec)"/>
<circle cx="296" cy="120" r="4" fill="#cfe6ff" opacity="0.8"/>
<circle cx="330" cy="120" r="12" fill="url(#bluec)"/>
<circle cx="330" cy="120" r="4" fill="#cfe6ff" opacity="0.8"/>
<circle cx="452" cy="122" r="8" fill="#E7ECF1" stroke="#9AA7B4" stroke-width="1.4"/>
<circle cx="452" cy="122" r="3" fill="#6B7884"/>
<circle cx="492" cy="122" r="8" fill="#E7ECF1" stroke="#9AA7B4" stroke-width="1.4"/>
<circle cx="492" cy="122" r="3" fill="#6B7884"/>
</g>
</g>
</svg>
