<svg xmlns="http://www.w3.org/2000/svg" viewBox="0 0 1000 420" role="img" aria-label="Connection overview diagram" width="1000" height="420">
<title>Connection overview diagram</title>
<defs>
  <linearGradient id="bgd" x1="0" y1="0" x2="0" y2="1"><stop offset="0" stop-color="#FFFFFF"/><stop offset="1" stop-color="#E0F7FB"/></linearGradient>
  <linearGradient id="cyl" x1="0" y1="0" x2="1" y2="0"><stop offset="0" stop-color="#3DBF66"/><stop offset="0.5" stop-color="#2EA24E"/><stop offset="1" stop-color="#176E33"/></linearGradient>
  <linearGradient id="boxd" x1="0" y1="0" x2="0" y2="1"><stop offset="0" stop-color="#FFFFFF"/><stop offset="1" stop-color="#EDF1F6"/></linearGradient>
  <marker id="arrd" markerWidth="12" markerHeight="12" refX="8" refY="4" orient="auto"><path d="M0,0 L8,4 L0,8 Z" fill="#077E92"/></marker>
</defs>
<rect width="1000" height="420" fill="url(#bgd)"/>
<text x="500" y="44" text-anchor="middle" font-family="Arial" font-size="22" font-weight="800" fill="#0B3A52">Connection Overview</text>
<rect x="60" y="120" width="80" height="180" rx="36" fill="url(#cyl)" stroke="#176E33" stroke-width="2"/>
<rect x="92" y="96" width="16" height="32" fill="#9AA7B4"/><circle cx="100" cy="92" r="14" fill="#9AA7B4"/>
<text x="100" y="330" text-anchor="middle" font-family="Arial" font-size="14" font-weight="700" fill="#0B3A52">O₂ Cylinder</text>
<text x="100" y="350" text-anchor="middle" font-family="Arial" font-size="11" fill="#6B7884">or concentrator</text>
<line x1="150" y1="200" x2="250" y2="200" stroke="#077E92" stroke-width="4" marker-end="url(#arrd)"/>
<rect x="262" y="168" width="120" height="64" rx="16" fill="url(#cyl)" stroke="#176E33" stroke-width="2"/>
<circle cx="300" cy="150" r="24" fill="#EEF2F4" stroke="#6B7884" stroke-width="2"/><line x1="300" y1="150" x2="314" y2="138" stroke="#D0342C" stroke-width="2.5"/>
<text x="322" y="330" text-anchor="middle" font-family="Arial" font-size="14" font-weight="700" fill="#0B3A52">Regulator</text>
<text x="322" y="350" text-anchor="middle" font-family="Arial" font-size="11" fill="#6B7884">sets O₂ flow</text>
<line x1="392" y1="200" x2="492" y2="200" stroke="#077E92" stroke-width="4" marker-end="url(#arrd)"/>
<rect x="506" y="150" width="170" height="100" rx="16" fill="url(#boxd)" stroke="#D4DCE6" stroke-width="2"/>
<rect x="522" y="166" width="80" height="34" rx="4" fill="#FFF" stroke="#D4DCE6"/>
<rect x="524" y="168" width="16" height="8" fill="#A8C2E3"/>
<rect x="524" y="178" width="16" height="8" fill="#78A0D3"/>
<rect x="524" y="188" width="16" height="8" fill="#487FC3"/>
<rect x="543" y="168" width="16" height="8" fill="#A1DED2"/>
<rect x="543" y="178" width="16" height="8" fill="#6DCBB8"/>
<rect x="543" y="188" width="16" height="8" fill="#38B99F"/>
<rect x="562" y="168" width="16" height="8" fill="#E7DEA6"/>
<rect x="562" y="178" width="16" height="8" fill="#D9CB75"/>
<rect x="562" y="188" width="16" height="8" fill="#CCB944"/>
<rect x="581" y="168" width="16" height="8" fill="#E9B5AE"/>
<rect x="581" y="178" width="16" height="8" fill="#DD8C80"/>
<rect x="581" y="188" width="16" height="8" fill="#D16253"/>
<circle cx="540" cy="222" r="8" fill="#EFF3F7" stroke="#9AA7B4"/><circle cx="566" cy="222" r="8" fill="#EFF3F7" stroke="#9AA7B4"/><circle cx="600" cy="220" r="12" fill="url(#cyl)" opacity="0"/><circle cx="600" cy="220" r="12" fill="#33414E"/>
<text x="591" y="330" text-anchor="middle" font-family="Arial" font-size="14" font-weight="700" fill="#0B3A52">Ozone Generator</text>
<text x="591" y="350" text-anchor="middle" font-family="Arial" font-size="11" fill="#6B7884">AOT-MD-520</text>
<line x1="686" y1="200" x2="786" y2="200" stroke="#077E92" stroke-width="4" marker-end="url(#arrd)"/>
<circle cx="860" cy="200" r="58" fill="#EAF6FA" stroke="#0AA2B8" stroke-width="2"/>
<circle cx="842" cy="210" r="7" fill="#7DD3FC" opacity="0.8"/>
<circle cx="858" cy="225" r="5" fill="#7DD3FC" opacity="0.8"/>
<circle cx="872" cy="205" r="6" fill="#7DD3FC" opacity="0.8"/>
<circle cx="852" cy="190" r="4" fill="#7DD3FC" opacity="0.8"/>
<circle cx="868" cy="188" r="5" fill="#7DD3FC" opacity="0.8"/>
<path d="M828,170 q32,-26 64,0" fill="none" stroke="#077E92" stroke-width="3"/>
<text x="860" y="300" text-anchor="middle" font-family="Arial" font-size="14" font-weight="700" fill="#0B3A52">Application</text>
<text x="860" y="320" text-anchor="middle" font-family="Arial" font-size="11" fill="#6B7884">diffuser / luer</text>
</svg>
