<svg xmlns="http://www.w3.org/2000/svg" viewBox="0 0 1000 700" role="img" aria-label="Medical Ozone Care digital ozone generator" width="1000" height="700">
<title>Medical Ozone Care digital ozone generator</title>
<defs>
  <linearGradient id="bgdg2" x1="0" y1="0" x2="0" y2="1"><stop offset="0" stop-color="#E0F7FB"/><stop offset="1" stop-color="#F4FAFC"/></linearGradient>
  <linearGradient id="frontdg2" x1="0" y1="0" x2="0" y2="1"><stop offset="0" stop-color="#FFFFFF"/><stop offset="1" stop-color="#EDF1F6"/></linearGradient>
  <linearGradient id="topdg2" x1="0" y1="0" x2="0" y2="1"><stop offset="0" stop-color="#FFFFFF"/><stop offset="1" stop-color="#D4DCE6"/></linearGradient>
  <linearGradient id="sidedg2" x1="0" y1="0" x2="1" y2="0"><stop offset="0" stop-color="#D4DCE6"/><stop offset="1" stop-color="#B7C2CF"/></linearGradient>
  <radialGradient id="knobdg2" cx="0.35" cy="0.3" r="0.8"><stop offset="0" stop-color="#5B6B7A"/><stop offset="0.6" stop-color="#2b3742"/><stop offset="1" stop-color="#141c24"/></radialGradient>
  <radialGradient id="leddg2" cx="0.4" cy="0.35" r="0.7"><stop offset="0" stop-color="#cfe8ff"/><stop offset="0.5" stop-color="#4FB7FF"/><stop offset="1" stop-color="#0c49b8"/></radialGradient>
  <radialGradient id="steeldg2" cx="0.4" cy="0.3" r="0.8"><stop offset="0" stop-color="#eef2f5"/><stop offset="0.6" stop-color="#aeb9c4"/><stop offset="1" stop-color="#7c8893"/></radialGradient>
  <filter id="softdg2" x="-20%" y="-20%" width="140%" height="140%"><feDropShadow dx="0" dy="12" stdDeviation="16" flood-color="#0B3A52" flood-opacity="0.18"/></filter>
</defs>
<rect width="1000" height="700" fill="url(#bgdg2)"/>
<g filter="url(#softdg2)">
<ellipse cx="500" cy="616" rx="330" ry="34" fill="#0B3A52" opacity="0.12"/>
<path d="M740,600 L740,232 L890,137 L890,505 Z" fill="url(#sidedg2)" stroke="#B7C2CF" stroke-width="1.5"/>
<path d="M180,232 L740,232 L890,137 L330,137 Z" fill="url(#topdg2)" stroke="#B7C2CF" stroke-width="1.5"/>
<g transform="matrix(1,0,1,-0.6333,180,232)">
<rect x="24" y="14" width="420" height="118" rx="6" fill="#FFFFFF" stroke="#D4DCE6"/>
<rect x="34" y="22" width="150" height="9" rx="4" fill="#1F6FEB"/>
<rect x="34" y="42" width="58" height="20" rx="3" fill="#EDF1F6"/>
<rect x="98" y="42" width="44" height="20" rx="2" fill="#E8A23A" opacity="0.85"/>
<rect x="144" y="42" width="44" height="20" rx="2" fill="#3FA9C9" opacity="0.85"/>
<rect x="190" y="42" width="44" height="20" rx="2" fill="#EBD9C2" opacity="0.85"/>
<rect x="236" y="42" width="44" height="20" rx="2" fill="#C9536A" opacity="0.85"/>
<rect x="282" y="42" width="44" height="20" rx="2" fill="#EBD9C2" opacity="0.85"/>
<rect x="328" y="42" width="44" height="20" rx="2" fill="#9B6FB0" opacity="0.85"/>
<rect x="374" y="42" width="44" height="20" rx="2" fill="#6FB07A" opacity="0.85"/>
<rect x="34" y="70" width="58" height="20" rx="3" fill="#EDF1F6"/>
<rect x="98" y="70" width="44" height="20" rx="2" fill="#E8A23A" opacity="0.85"/>
<rect x="144" y="70" width="44" height="20" rx="2" fill="#3FA9C9" opacity="0.85"/>
<rect x="190" y="70" width="44" height="20" rx="2" fill="#EBD9C2" opacity="0.85"/>
<rect x="236" y="70" width="44" height="20" rx="2" fill="#C9536A" opacity="0.85"/>
<rect x="282" y="70" width="44" height="20" rx="2" fill="#EBD9C2" opacity="0.85"/>
<rect x="328" y="70" width="44" height="20" rx="2" fill="#9B6FB0" opacity="0.85"/>
<rect x="374" y="70" width="44" height="20" rx="2" fill="#6FB07A" opacity="0.85"/>
<rect x="34" y="98" width="58" height="20" rx="3" fill="#EDF1F6"/>
<rect x="98" y="98" width="44" height="20" rx="2" fill="#E8A23A" opacity="0.85"/>
<rect x="144" y="98" width="44" height="20" rx="2" fill="#3FA9C9" opacity="0.85"/>
<rect x="190" y="98" width="44" height="20" rx="2" fill="#EBD9C2" opacity="0.85"/>
<rect x="236" y="98" width="44" height="20" rx="2" fill="#C9536A" opacity="0.85"/>
<rect x="282" y="98" width="44" height="20" rx="2" fill="#EBD9C2" opacity="0.85"/>
<rect x="328" y="98" width="44" height="20" rx="2" fill="#9B6FB0" opacity="0.85"/>
<rect x="374" y="98" width="44" height="20" rx="2" fill="#6FB07A" opacity="0.85"/>
</g>
<rect x="600" y="146" width="20" height="46" rx="5" fill="url(#steeldg2)" stroke="#6B7884" stroke-width="1"/>
<rect x="597" y="132" width="26" height="16" rx="7" fill="#bcd8ec" stroke="#8fb4cf" stroke-width="1"/>
<rect x="710" y="124" width="20" height="46" rx="5" fill="url(#steeldg2)" stroke="#6B7884" stroke-width="1"/>
<rect x="707" y="110" width="26" height="16" rx="7" fill="#bcd8ec" stroke="#8fb4cf" stroke-width="1"/>
<path d="M180,600 L740,600 L740,232 L180,232 Z" fill="url(#frontdg2)" stroke="#B7C2CF" stroke-width="1.5"/>
</g>
<text x="610" y="214" text-anchor="middle" font-family="Arial" font-size="13" fill="#0B3A52">O₃ Port</text>
<text x="720" y="196" text-anchor="middle" font-family="Arial" font-size="13" fill="#0B3A52">Vacuum</text>
<path d="M180,232 L246,232 L180,290 Z" fill="#E5343B"/>
<text x="214" y="270" font-family="Arial" font-weight="800" font-size="21" letter-spacing="0.5" fill="#1F6FEB">MEDICAL <tspan fill="#077E92">OZONE</tspan> CARE</text>
<text x="214" y="289" font-family="Arial" font-size="10.5" fill="#5C6F7A">B-87, Madhu Vihar, Uttam Nagar, New Delhi-110059</text>
<text x="214" y="305" font-family="Arial" font-size="10.5" fill="#5C6F7A">medicalozonecare@gmail.com · www.medicalozonecare.co.in</text>
<text x="648" y="292" font-family="Arial" font-weight="700" font-size="30" fill="#6B7884">CE</text>
<rect x="214" y="470" width="40" height="56" rx="6" fill="#1c252d"/><rect x="221" y="478" width="26" height="22" rx="3" fill="#36444f"/>
<text x="234" y="548" text-anchor="middle" font-family="Arial" font-size="12" fill="#0B3A52">On/Off</text>
<rect x="298" y="452" width="168" height="80" rx="8" fill="#0b0f12" stroke="#2a333b" stroke-width="2"/>
<text x="312" y="486" font-family="Consolas,monospace" font-weight="700" font-size="13" fill="#9aa7b4">DC</text>
<text x="436" y="488" text-anchor="end" font-family="Consolas,monospace" font-weight="700" font-size="26" fill="#ff3b30">12.3</text>
<text x="452" y="486" text-anchor="end" font-family="Arial" font-size="12" fill="#9aa7b4">V</text>
<text x="312" y="518" font-family="Consolas,monospace" font-weight="700" font-size="13" fill="#9aa7b4">DC</text>
<text x="436" y="520" text-anchor="end" font-family="Consolas,monospace" font-weight="700" font-size="26" fill="#34d058">0.07</text>
<text x="452" y="518" text-anchor="end" font-family="Arial" font-size="12" fill="#9aa7b4">A</text>
<text x="382" y="552" text-anchor="middle" font-family="Arial" font-size="12" fill="#0B3A52">V/C Display Meter</text>
<circle cx="548" cy="486" r="20" fill="#dfe9f2" stroke="#6B7884" stroke-width="2"/>
<circle cx="548" cy="486" r="13" fill="url(#leddg2)"/>
<circle cx="548" cy="486" r="24" fill="none" stroke="#4FB7FF" stroke-width="2" opacity="0.5"/>
<circle cx="596.0" cy="513.9" r="1.8" fill="#6B7884"/>
<circle cx="589.0" cy="500.2" r="1.8" fill="#6B7884"/>
<circle cx="588.7" cy="484.9" r="1.8" fill="#6B7884"/>
<circle cx="595.2" cy="471.1" r="1.8" fill="#6B7884"/>
<circle cx="607.1" cy="461.4" r="1.8" fill="#6B7884"/>
<circle cx="622.0" cy="458.0" r="1.8" fill="#6B7884"/>
<circle cx="636.9" cy="461.4" r="1.8" fill="#6B7884"/>
<circle cx="648.8" cy="471.1" r="1.8" fill="#6B7884"/>
<circle cx="655.3" cy="484.9" r="1.8" fill="#6B7884"/>
<circle cx="655.0" cy="500.2" r="1.8" fill="#6B7884"/>
<circle cx="648.0" cy="513.9" r="1.8" fill="#6B7884"/>
<circle cx="622" cy="492" r="26" fill="url(#knobdg2)"/>
<rect x="619" y="470" width="6" height="20" rx="3" fill="#cfd8df"/>
<text x="588" y="500" text-anchor="end" font-family="Arial" font-size="10" fill="#5C6F7A">Min</text>
<text x="656" y="500" font-family="Arial" font-size="10" fill="#5C6F7A">Max</text>
<text x="622" y="548" text-anchor="middle" font-family="Arial" font-size="12" fill="#0B3A52">Current Knob</text>
<circle cx="704" cy="488" r="17" fill="url(#steeldg2)" stroke="#6B7884" stroke-width="2"/><circle cx="704" cy="488" r="8" fill="#c7d0d8"/>
<text x="704" y="548" text-anchor="middle" font-family="Arial" font-size="12" fill="#0B3A52">Vacuum Switch</text>
<rect x="742" y="556" width="40" height="10" rx="3" fill="url(#steeldg2)"/><rect x="780" y="558" width="14" height="6" rx="3" fill="#9AA7B4"/>
</svg>
