<svg xmlns="http://www.w3.org/2000/svg" viewBox="0 0 1000 640" role="img" aria-label="Ozone water and oil system" width="1000" height="640">
<title>Ozone water and oil system</title>
<defs>
  <linearGradient id="bgwo" x1="0" y1="0" x2="0" y2="1"><stop offset="0" stop-color="#E0F7FB"/><stop offset="1" stop-color="#F4FAFC"/></linearGradient>
  <linearGradient id="casewo" x1="0" y1="0" x2="0" y2="1"><stop offset="0" stop-color="#FFFFFF"/><stop offset="1" stop-color="#EDF1F6"/></linearGradient>
  <linearGradient id="screenwo" x1="0" y1="0" x2="1" y2="1"><stop offset="0" stop-color="#16202b"/><stop offset="1" stop-color="#0a1118"/></linearGradient>
  <linearGradient id="glasswo" x1="0" y1="0" x2="1" y2="0"><stop offset="0" stop-color="#EAF6FA"/><stop offset="0.5" stop-color="#CFEAF2" stop-opacity="0.55"/><stop offset="1" stop-color="#AFD9E6"/></linearGradient>
  <linearGradient id="liqwo" x1="0" y1="0" x2="0" y2="1"><stop offset="0" stop-color="#bfeefb" stop-opacity="0.7"/><stop offset="1" stop-color="#7fd6ec"/></linearGradient>
  <filter id="softwo" x="-20%" y="-20%" width="140%" height="140%"><feDropShadow dx="0" dy="12" stdDeviation="16" flood-color="#0B3A52" flood-opacity="0.16"/></filter>
</defs>
<rect width="1000" height="640" fill="url(#bgwo)"/>
<ellipse cx="320" cy="520" rx="230" ry="30" fill="#0B3A52" opacity="0.12"/>
<ellipse cx="720" cy="520" rx="120" ry="22" fill="#0B3A52" opacity="0.10"/>
<g filter="url(#softwo)">
<rect x="90" y="150" width="400" height="360" rx="22" fill="url(#casewo)" stroke="#D4DCE6" stroke-width="2"/>
<rect x="124" y="206" width="262" height="244" rx="12" fill="url(#screenwo)" stroke="#2a333b" stroke-width="3"/>
<rect x="146" y="232" width="120" height="14" rx="7" fill="#0AA2B8" opacity="0.7"/>
<circle cx="255" cy="330" r="48" fill="none" stroke="#4FB7FF" stroke-width="6" opacity="0.65"/>
<text x="255" y="338" text-anchor="middle" font-family="Arial" font-weight="700" font-size="22" fill="#cfe8ff">O₃</text>
<rect x="150" y="404" width="210" height="10" rx="5" fill="#2c3a45"/>
<circle cx="430" cy="150" r="0" fill="none"/>
<rect x="300" y="132" width="16" height="22" rx="4" fill="#9aa7b4"/>
<circle cx="360" cy="138" r="14" fill="#33414e"/>
<text x="690" y="190" font-family="Arial" font-weight="700" font-size="26" fill="#6B7884">CE</text>
</g>
<path d="M308,128 C320,70 560,70 640,150 C690,200 700,250 700,300" fill="none" stroke="#d7e6ee" stroke-width="9" stroke-linecap="round" opacity="0.95"/>
<path d="M308,128 C320,70 560,70 640,150 C690,200 700,250 700,300" fill="none" stroke="#ffffff" stroke-width="3" stroke-linecap="round" opacity="0.6"/>
<g filter="url(#softwo)">
<path d="M708,300 L732,300 L732,318 L790,470 Q794,490 772,490 L668,490 Q646,490 650,470 L708,318 Z" fill="url(#glasswo)" stroke="#9FC8D6" stroke-width="2.5"/>
<path d="M676,430 L764,430 L778,470 Q782,486 764,486 L676,486 Q658,486 662,470 Z" fill="url(#liqwo)"/>
<rect x="702" y="292" width="36" height="12" rx="4" fill="#cfe7f0" stroke="#9FC8D6" stroke-width="2"/>
</g>
<circle cx="700" cy="470" r="5" fill="#ffffff" opacity="0.75"/>
<circle cx="726" cy="458" r="4" fill="#ffffff" opacity="0.75"/>
<circle cx="744" cy="472" r="6" fill="#ffffff" opacity="0.75"/>
<circle cx="714" cy="480" r="3" fill="#ffffff" opacity="0.75"/>
<circle cx="760" cy="468" r="4" fill="#ffffff" opacity="0.75"/>
<path d="M700,300 q4,-6 14,2 l6,150" fill="none" stroke="#cfe7f0" stroke-width="7" stroke-linecap="round"/>
<rect x="716" y="446" width="10" height="26" rx="4" fill="#b9d6e2" stroke="#9FC8D6" stroke-width="1.5"/>
<circle cx="721" cy="440" r="2.6" fill="#ffffff" opacity="0.8"/>
<circle cx="726" cy="428" r="2.6" fill="#ffffff" opacity="0.8"/>
<circle cx="718" cy="432" r="2.6" fill="#ffffff" opacity="0.8"/>
<circle cx="730" cy="444" r="2.6" fill="#ffffff" opacity="0.8"/>
<text x="290" y="556" text-anchor="middle" font-family="Arial" font-weight="700" font-size="18" fill="#0B3A52">Ozone Water &amp; Oil System</text>
<text x="730" y="556" text-anchor="middle" font-family="Arial" font-size="13" fill="#5C6F7A">Glass diffuser into bottle</text>
</svg>
